# xmcd
#
# Track frame offsets:
#	150
#	16352
#	30968
#	56957
#	74562
#	95270
#	115341
#	139091
#	159994
#	178003
#	195469
#	222932
#
# Disc length: 3180 seconds
# Revision: 3
# Processed by: cddbd v1.5.2PL0 Copyright (c) Steve Scherf et al.
# Submitted via: dBpowerAMP V12.0
#
DISCID=a50c6a0c
DTITLE=王若琳 - Start From Here CD1
DYEAR=2008
DGENRE=Chinese Blues
TTITLE0=Let¡¦s Start from Here
TTITLE1=Lost in Paradise
TTITLE2=As Love Begins to Mend
TTITLE3=Bada Bada
TTITLE4=Lost Taipei
TTITLE5=The Best Mistake I¡¦ve Ever Made
TTITLE6=I Love You (OT: 愛很簡單)
TTITLE7=For No Reason
TTITLE8=Stages of Flying
TTITLE9=Now
TTITLE10=True
TTITLE11=New York State of Mind
EXTD=
EXTT0=
EXTT1=
EXTT2=
EXTT3=
EXTT4=
EXTT5=
EXTT6=
EXTT7=
EXTT8=
EXTT9=
EXTT10=
EXTT11=
PLAYORDER=
